<svg id="Layer_1" data-name="Layer 1" xmlns="http://www.w3.org/2000/svg" viewBox="0 0 708.88 712.52"><defs><style>.cls-1{fill:#fff;}.cls-2{fill:none;}</style></defs><title>logo sagar sys black</title><ellipse class="cls-1" cx="354.44" cy="354.94" rx="354.44" ry="354.94"/><path d="M388.15,46.94c196.11,0,355.09,159,355.09,355.09s-159,355.09-355.09,355.09" transform="translate(-34.36 -46.94)"/><path d="M388.15,339.33a145.88,145.88,0,0,1-103.66-42.11,143.16,143.16,0,0,1-.06-203.88C295,82.92,306.79,73,319.28,66.39a172.86,172.86,0,0,0-54.12,36.37,170.23,170.23,0,0,0,.08,242.43,172.78,172.78,0,0,0,83.26,45.73s14.85,4.28,39.65,3.94Z" transform="translate(-34.36 -46.94)"/><path class="cls-2" d="M353.35,233.06l-.17,1.59c-.29,2.72-.6,5.55-.66,8.28-.07,3.18.07,6.45.2,9.62l.11,2.51c0,.12,0,.23,0,.35,1.29-.91,2.58-1.83,3.84-2.8A81.44,81.44,0,0,0,372,237.18a125.63,125.63,0,0,1-8.45-11.45A76.11,76.11,0,0,1,353.35,233.06Z" transform="translate(-34.36 -46.94)"/><path class="cls-2" d="M339.47,210.63a66.12,66.12,0,0,0,13.59-4.83c-1-2.57-1.82-5.15-2.55-7.74A72,72,0,0,0,339.47,210.63Z" transform="translate(-34.36 -46.94)"/><path class="cls-2" d="M382,259.52a101,101,0,0,1-7.12-17.13l-.06.07c-1.62,2-3.29,4-5.1,5.94a88.46,88.46,0,0,1-16.06,13.2c.14.7.23,1.4.33,2.1.06.42.12.84.19,1.26a117.44,117.44,0,0,0,6.15,22.92,119.65,119.65,0,0,0,14.07-13.51,112.58,112.58,0,0,0,9.21-11.92c-.53-.88-1-1.76-1.47-2.65Z" transform="translate(-34.36 -46.94)"/><path class="cls-2" d="M335.48,217.06a95.65,95.65,0,0,0-8.26,19.46q-.18.58-.36,1.2c1.2-.3,2.4-.6,3.59-.92a81.15,81.15,0,0,0,17.84-7.18,78,78,0,0,1,5.13-17.91A73.08,73.08,0,0,1,335.48,217.06Z" transform="translate(-34.36 -46.94)"/><path class="cls-2" d="M326.43,218a93,93,0,0,1-20.85-1.27,126.17,126.17,0,0,0-12.05,21.7c-.3.7-.58,1.41-.86,2.12a113.15,113.15,0,0,0,13,.13,126.61,126.61,0,0,0,15.09-1.66,109.16,109.16,0,0,1,8-21.19C328,217.93,327.22,218,326.43,218Z" transform="translate(-34.36 -46.94)"/><path class="cls-2" d="M347.25,253.33a97.94,97.94,0,0,1,.17-17.07,95.4,95.4,0,0,1-22.07,7.5l-.43,2.2c-.76,3.93-1.55,8-2.15,12-.45,2.95-.62,6.06-.8,9.06l-.06,1.11c-.05.81,0,1.65,0,2.53l.29-.1c2.33-.81,4.62-1.59,6.88-2.46a110.69,110.69,0,0,0,18.67-9.26c-.07-.84-.14-1.68-.22-2.52C347.41,255.32,347.32,254.33,347.25,253.33Z" transform="translate(-34.36 -46.94)"/><path class="cls-2" d="M335.64,188.07a50,50,0,0,0,5.55.4c2.37,0,4.77-.12,7.17-.25-.29-1.88-.48-3.75-.61-5.6A66.5,66.5,0,0,0,335.64,188.07Z" transform="translate(-34.36 -46.94)"/><path class="cls-2" d="M346.24,148.11c-1.89-.66-3.78-1.23-5.71-1.73a69.57,69.57,0,0,0,10,11.19c.66-2.26,1.4-4.53,2.27-6.82C350.69,149.78,348.5,148.89,346.24,148.11Z" transform="translate(-34.36 -46.94)"/><path class="cls-2" d="M346.75,168a57.66,57.66,0,0,0-11.19.7,66.87,66.87,0,0,0,12.13,5.13q.18-2.87.59-5.71Z" transform="translate(-34.36 -46.94)"/><path class="cls-2" d="M353.6,100.55l-.41-.29a.38.38,0,0,1,0,.1c-.18,2.86-.37,5.72-.46,8.58a87.28,87.28,0,0,0,1,15.16,77.86,77.86,0,0,1,9.31,6.73,123.43,123.43,0,0,1,9.12-12.35A83.83,83.83,0,0,0,353.6,100.55Z" transform="translate(-34.36 -46.94)"/><path class="cls-2" d="M322.15,190.65a92.24,92.24,0,0,1-20.24-9.28,124.42,124.42,0,0,0-25.35,20.17l-.32.34a122.12,122.12,0,0,0,26.89,8.9A103.77,103.77,0,0,1,322.15,190.65Z" transform="translate(-34.36 -46.94)"/><path class="cls-2" d="M356,132.25l-.68-.5a75,75,0,0,0,2.51,8q1.11-2.1,2.31-4.16C358.77,134.43,357.41,133.31,356,132.25Z" transform="translate(-34.36 -46.94)"/><path class="cls-2" d="M315.88,168.35c2-.75,4-1.43,6.07-2.11a90.37,90.37,0,0,1-18.85-21,1.84,1.84,0,0,0-.25-.33s-.16,0-.38.06a134.1,134.1,0,0,0-25,6.33l-.84.32.78.91c1.6,1.87,3.2,3.74,4.87,5.56A108.15,108.15,0,0,0,302,174.92,93.27,93.27,0,0,1,315.88,168.35Z" transform="translate(-34.36 -46.94)"/><path class="cls-2" d="M347.72,162.5a72.8,72.8,0,0,1-7-7,83,83,0,0,1-7.87-10.68c-1.36-.24-2.71-.42-4-.54a93.09,93.09,0,0,0-14.28-.42l-5.51.38a83,83,0,0,0,19.64,20.15,75.34,75.34,0,0,1,13.55-1.86C344.08,162.45,345.92,162.45,347.72,162.5Z" transform="translate(-34.36 -46.94)"/><path class="cls-2" d="M343.55,178.29a71.34,71.34,0,0,1-16-8,95.71,95.71,0,0,0-20.09,7.92,80,80,0,0,0,20.3,8.29,75.72,75.72,0,0,1,14.86-7.86Z" transform="translate(-34.36 -46.94)"/><path class="cls-2" d="M322.76,94.93a111.81,111.81,0,0,0,2.8,17.25,109.06,109.06,0,0,1,22.31,8.56c-.23-2.24-.46-4.55-.57-6.86A104.83,104.83,0,0,1,348,96.82,120,120,0,0,0,322.33,85c0,.45,0,.91,0,1.37C322.46,89.16,322.56,92.08,322.76,94.93Z" transform="translate(-34.36 -46.94)"/><path class="cls-2" d="M307.25,138.91c1.34-.15,2.67-.28,4-.32,3.74-.12,8.08-.23,12.33-.12,2,.06,4,.22,5.91.41a104.38,104.38,0,0,1-8.25-21.58c-.12-.49-.22-.61-.23-.61a1.61,1.61,0,0,0-.56-.18,124.62,124.62,0,0,0-18.37-2.86c-2.5-.16-5-.22-7.52-.29l-.6,0,.54,1.55c1,2.84,2,5.78,3.15,8.6a100.08,100.08,0,0,0,8,15.58Z" transform="translate(-34.36 -46.94)"/><path class="cls-2" d="M336.31,139.85a75.39,75.39,0,0,1,17.82,5.49,80.05,80.05,0,0,1-5.38-17.85,99.54,99.54,0,0,0-21.53-9.14A97.21,97.21,0,0,0,336.31,139.85Z" transform="translate(-34.36 -46.94)"/><path class="cls-2" d="M375.11,113.23a99.87,99.87,0,0,1,8.78-19.88,118.41,118.41,0,0,0-21.17-23.83c-.65-.56-1.32-1.11-2-1.66A121.55,121.55,0,0,0,353.9,94.1,90.58,90.58,0,0,1,375.11,113.23Z" transform="translate(-34.36 -46.94)"/><path class="cls-2" d="M346.76,194a73.81,73.81,0,0,1-17.86-1.53A90.75,90.75,0,0,0,312,208.36c-.91,1.1-1.79,2.21-2.68,3.34,2.34.31,4.75.62,7.1.8a81.13,81.13,0,0,0,14.66-.33c1-.11,1.07-.23,1.33-.67A75.21,75.21,0,0,1,346.76,194Z" transform="translate(-34.36 -46.94)"/><path class="cls-2" d="M382.34,156.49l.21.42.18-1.46-.82.2C382.05,155.93,382.19,156.21,382.34,156.49Z" transform="translate(-34.36 -46.94)"/><path class="cls-2" d="M382.21,217.92c-1.21-.16-2.4-.37-3.57-.64.81,1.2,1.66,2.39,2.54,3.59C381.55,219.89,381.88,218.91,382.21,217.92Z" transform="translate(-34.36 -46.94)"/><path class="cls-2" d="M367.94,166l0,.06.12,0Z" transform="translate(-34.36 -46.94)"/><path class="cls-2" d="M388.25,250.8h-3.48l-1.5-1.56c1.1,2.61,2.29,5.22,3.67,7.86.47-.81.89-1.61,1.31-2.42Z" transform="translate(-34.36 -46.94)"/><path class="cls-2" d="M357.69,215.8a68.24,68.24,0,0,0-2.54,7.95q-.24.93-.45,1.86a68.75,68.75,0,0,0,5.86-4.65c-.61-1-1.22-2.06-1.81-3.11C358.37,217.17,358.05,216.48,357.69,215.8Z" transform="translate(-34.36 -46.94)"/><path class="cls-2" d="M374.94,158.7c-.14.09-.28.21-.42.31l.7.63Z" transform="translate(-34.36 -46.94)"/><path d="M388.15,154.81h-.27a24.34,24.34,0,0,0-5.25.58c-.06.49-.12,1-.17,1.46-.08-.14-.15-.28-.22-.42s-.28-.56-.43-.84a22.74,22.74,0,0,0-7,3l.28.94-.69-.63a21.9,21.9,0,0,0-6.49,7.08l.08.09-.12,0a23.7,23.7,0,0,0-3.1,11.75A22.75,22.75,0,0,0,387.54,201h.21l.4,0Z" transform="translate(-34.36 -46.94)"/><path d="M388.15,254.61c-.42.8-.84,1.61-1.3,2.42-1.39-2.64-2.58-5.25-3.68-7.86l-.57-.59-.43-.46c-.2-.2-.39-.41-.6-.61a126.74,126.74,0,0,1-9.6-10.33,81.44,81.44,0,0,1-15.28,15.43c-1.26,1-2.55,1.89-3.84,2.8,0-.12,0-.23,0-.35l-.11-2.51c-.13-3.17-.27-6.44-.2-9.62.06-2.73.37-5.56.66-8.28l.17-1.59a76.11,76.11,0,0,0,10.17-7.33c-1-1.56-2-3.16-3-4.77a68.75,68.75,0,0,1-5.86,4.65q.21-.93.45-1.86a68.24,68.24,0,0,1,2.54-7.95,99,99,0,0,1-4.63-10,66.12,66.12,0,0,1-13.59,4.83,72,72,0,0,1,11-12.57c-.34-1.23-.71-2.45-1-3.69-.49-2.08-.85-4.12-1.15-6.15-2.4.13-4.8.25-7.17.25a50,50,0,0,1-5.55-.4,66.5,66.5,0,0,1,12.11-5.45,67.31,67.31,0,0,1-.12-8c0-.26.05-.51.06-.77a66.87,66.87,0,0,1-12.13-5.13,57.66,57.66,0,0,1,11.19-.7l1.53.12a76.54,76.54,0,0,1,2.25-10.54,69.57,69.57,0,0,1-10-11.19c1.93.5,3.82,1.07,5.71,1.73,2.26.78,4.45,1.67,6.56,2.64,1-2.54,2.07-5.1,3.32-7.68.53-1.12,1.1-2.23,1.67-3.33a75,75,0,0,1-2.51-8l.68.5c1.45,1.06,2.81,2.18,4.14,3.33.93-1.6,1.91-3.19,2.92-4.75a77.86,77.86,0,0,0-9.31-6.73,87.28,87.28,0,0,1-1-15.16c.09-2.86.28-5.72.46-8.58a.38.38,0,0,0,0-.1l.41.29a83.83,83.83,0,0,1,18.54,17.93c.74-.88,1.49-1.76,2.26-2.64,1.8-2,3.68-3.92,5.49-5.76.7-.7,1.4-1.4,2.09-2.12l2.06-2.88h.07c.94-2.09,1.93-4.19,3.06-6.31.35.61.66,1.23,1,1.84V86.46c-.38.57-.78,1.11-1.16,1.7A121.38,121.38,0,0,0,360.88,61l-2.34-1.79-1.22,2.68a117.74,117.74,0,0,0-8.45,29,122.17,122.17,0,0,0-27.64-12l-.32-.11a3.08,3.08,0,0,0-2.63.1l-.47-.13,0,.51a3.76,3.76,0,0,0-.94,2.61l0,.37a8,8,0,0,0-.05,1.19c.06,1.28.1,2.56.15,3.84.11,3.15.23,6.4.58,9.62.38,3.48,1,6.95,1.57,10.3.21,1.18.41,2.36.61,3.54a133.25,133.25,0,0,0-14.43-2.32,99.7,99.7,0,0,0-14.35-.64,3.43,3.43,0,0,0-2.83,1.23h0l-.21,0,.06.22a3.58,3.58,0,0,0-.13,2.87,121.72,121.72,0,0,0,11.94,27.75,132,132,0,0,0-13.47,2.88,97.44,97.44,0,0,0-14.11,4.77,8.82,8.82,0,0,0-1.22.68l-2.7,1.6,1.6,2.1a120.85,120.85,0,0,0,27,26.11l-.74.47a125.32,125.32,0,0,0-24.71,20.58c-.47.51-.9,1.06-1.35,1.65l-2.35,3,2.54,1.31a122.45,122.45,0,0,0,29.5,10.61,128.73,128.73,0,0,0-10.56,19.16c-.83,1.87-1.55,3.8-2.25,5.66l-.38,1a3.52,3.52,0,0,0-.16,2.38l-.24.6.59.09a3.24,3.24,0,0,0,2.48,1.26l1,.1c1,.1,2,.2,3,.21h.77c3.67.06,7.48.11,11.23,0a101.8,101.8,0,0,0,14.2-1.32c-.35,1.62-.7,3.29-.93,5-.81,5.89-1.42,11.11-1.87,16a53.79,53.79,0,0,0-.09,6.46l0,1.49a3.46,3.46,0,0,0,.8,2.42v1l1.06-.37a3.76,3.76,0,0,0,2.31-.13,120.47,120.47,0,0,0,27.84-11.94,118.58,118.58,0,0,0,8.33,29.06l1.2,2.7,2.36-1.79a121.58,121.58,0,0,0,26.24-27.09c.49.75,1,1.47,1.49,2.21ZM360.72,67.86c.68.55,1.35,1.1,2,1.66a118.41,118.41,0,0,1,21.17,23.83,99.87,99.87,0,0,0-8.78,19.88A90.58,90.58,0,0,0,353.9,94.1,121.55,121.55,0,0,1,360.72,67.86ZM346.76,194a75.21,75.21,0,0,0-14.35,17.52c-.26.44-.37.56-1.33.67a81.13,81.13,0,0,1-14.66.33c-2.35-.18-4.76-.49-7.1-.8.89-1.13,1.77-2.24,2.68-3.34a90.75,90.75,0,0,1,16.9-15.91A73.81,73.81,0,0,0,346.76,194Zm-3.21-15.69-.94.35a75.72,75.72,0,0,0-14.86,7.86,80,80,0,0,1-20.3-8.29,95.71,95.71,0,0,1,20.09-7.92A71.34,71.34,0,0,0,343.55,178.29Zm-2.79-22.77a72.8,72.8,0,0,0,7,7c-1.8-.05-3.64-.05-5.47.05a75.34,75.34,0,0,0-13.55,1.86,83,83,0,0,1-19.64-20.15l5.51-.38a93.09,93.09,0,0,1,14.28.42c1.33.12,2.68.3,4,.54A83,83,0,0,0,340.76,155.52Zm13.37-10.18a75.39,75.39,0,0,0-17.82-5.49,97.21,97.21,0,0,1-9.09-21.5,99.54,99.54,0,0,1,21.53,9.14A80.05,80.05,0,0,0,354.13,145.34ZM348,96.82a104.83,104.83,0,0,0-.73,17.06c.11,2.31.34,4.62.57,6.86a109.06,109.06,0,0,0-22.31-8.56,111.81,111.81,0,0,1-2.8-17.25c-.2-2.85-.3-5.77-.39-8.6,0-.46,0-.92,0-1.37A120,120,0,0,1,348,96.82Zm-50.37,26.67c-1.12-2.82-2.15-5.76-3.15-8.6l-.54-1.55.6,0c2.51.07,5,.13,7.52.29a124.62,124.62,0,0,1,18.37,2.86,1.61,1.61,0,0,1,.56.18s.11.12.23.61a104.38,104.38,0,0,0,8.25,21.58c-1.94-.19-3.93-.35-5.91-.41-4.25-.11-8.59,0-12.33.12-1.34,0-2.67.17-4,.32l-1.61.16A100.08,100.08,0,0,1,297.66,123.49Zm-15.37,34.59c-1.67-1.82-3.27-3.69-4.87-5.56l-.78-.91.84-.32a134.1,134.1,0,0,1,25-6.33c.22,0,.35,0,.38-.06a1.84,1.84,0,0,1,.25.33,90.37,90.37,0,0,0,18.85,21c-2.05.68-4.07,1.36-6.07,2.11A93.27,93.27,0,0,0,302,174.92,108.15,108.15,0,0,1,282.29,158.08Zm-6.05,43.8.32-.34a124.42,124.42,0,0,1,25.35-20.17,92.24,92.24,0,0,0,20.24,9.28,103.77,103.77,0,0,0-19,20.13A122.12,122.12,0,0,1,276.24,201.88Zm29.47,38.83a113.15,113.15,0,0,1-13-.13c.28-.71.56-1.42.86-2.12a126.17,126.17,0,0,1,12.05-21.7A93,93,0,0,0,326.43,218c.79,0,1.57-.1,2.36-.17a109.16,109.16,0,0,0-8,21.19A126.61,126.61,0,0,1,305.71,240.71Zm23.35,27.38c-2.26.87-4.55,1.65-6.88,2.46l-.29.1c0-.88,0-1.72,0-2.53L322,267c.18-3,.35-6.11.8-9.06.6-4,1.39-8.06,2.15-12l.43-2.2a95.4,95.4,0,0,0,22.07-7.5,97.94,97.94,0,0,0-.17,17.07c.07,1,.16,2,.26,3,.08.84.15,1.68.22,2.52A110.69,110.69,0,0,1,329.06,268.09Zm19.23-38.47a81.15,81.15,0,0,1-17.84,7.18c-1.19.32-2.39.62-3.59.92q.18-.61.36-1.2a95.65,95.65,0,0,1,8.26-19.46,73.08,73.08,0,0,0,17.94-5.35A78,78,0,0,0,348.29,229.62Zm26.06,44.75a119.65,119.65,0,0,1-14.07,13.51A117.44,117.44,0,0,1,354.13,265c-.07-.42-.13-.84-.19-1.26-.1-.7-.19-1.4-.33-2.1a88.46,88.46,0,0,0,16.06-13.2c1.81-1.91,3.48-4,5.1-5.94l.06-.07A101,101,0,0,0,382,259.52l.14.28c.47.89.94,1.77,1.47,2.65A112.58,112.58,0,0,1,374.35,274.37Z" transform="translate(-34.36 -46.94)"/><path d="M388.15,239l-.34.36c-11.94-12.13-21.43-25.65-26.82-41.82a33,33,0,0,0,26.77,13.65l.39,0V208l-.4,0h-.26a30.14,30.14,0,0,1,.39-60.27h.27v-3.14l-.35,0h0c-11.13,0-19.91,5-26.83,13.73a91.38,91.38,0,0,1,11-22.5,116.91,116.91,0,0,1,15.91-19.41l.31.33v-4.43l-.2-.22h-.29a3.48,3.48,0,0,1-.28.39c-2.57,2.66-5.26,5.23-7.72,8a111.84,111.84,0,0,0-17.21,25.61,74.4,74.4,0,0,0-7.79,28.82,63.72,63.72,0,0,0,1.7,17.84,83.58,83.58,0,0,0,8.54,21.66,118.5,118.5,0,0,0,21.54,28c.42.4.82.83,1.22,1.25H388c0-.08.05-.18.11-.23a.76.76,0,0,0,.09-.09Z" transform="translate(-34.36 -46.94)"/><path d="M387.92,501.2V427.14a11.74,11.74,0,0,1,.23-2.36V409l-.36,0c-42.51-2-61.55-14.55-61.55-14.55l7.51,32.34,2.2,2.51-1.62.37c.47,1.57,1,3.61,1.52,5.46l1.5,5.74c1,3.85,1.9,7.73,2.8,11.62,1.77,7.78,3.38,15.6,4.77,23.43a314.63,314.63,0,0,1,5.15,46.61,133.66,133.66,0,0,1-1.11,22c-.26,1.72-.5,3.46-.9,5.05-.18.8-.33,1.65-.53,2.43l-.66,2.27c-.38,1.61-1,2.81-1.49,4.25-.27.67-.6,1.2-.89,1.83a9.21,9.21,0,0,1-.91,1.69c-.33.49-.65,1-.95,1.53s-.7.79-1,1.22a4.34,4.34,0,0,1-.57.67l-1,.81-1.93,1.64-1.92,1.67-2,1.35a28.9,28.9,0,0,1-4.1,2.58,43.25,43.25,0,0,1-18.71,5.32c-7,.49-14.74-.29-22.82-1.33s-16.51-2.3-25.11-3.09a162.4,162.4,0,0,0-26.21-.42l-6.68.69c-2.21.24-4.32.77-6.48,1.14-4.34.71-8.47,1.92-12.63,3-16.53,4.62-32,11.3-47.13,18.47a482.23,482.23,0,0,0-43.89,24,478.52,478.52,0,0,1,46.11-18.59l2.27-.75-9,59.94,18.77-63.08A249.8,249.8,0,0,1,214,590.29c2.5-.34,5-.72,7.5-1,.08,2.27.15,4.55.14,6.82s0,4.71-.09,7.06-.22,4.67-.39,7A75.73,75.73,0,0,1,219,623.68a31.7,31.7,0,0,1-2.19,6l-.7,1.31-.77,1.12c-.27.28-.54.67-.77.85a3,3,0,0,1-.31.28l-.08.08s-.1,0,.31,0l-1,.35-50.69,31.28L213,641.7c.18.3.36.62.54.94a35.2,35.2,0,0,1,1.77,3.86,63.39,63.39,0,0,1,2.15,6.41,89.89,89.89,0,0,0-18.08,9.31l-4.88,3.44c-1.53,1.27-3,2.64-4.47,4a36.31,36.31,0,0,0-4.15,4.26,37.57,37.57,0,0,0-3.75,4.61,45,45,0,0,0-3.27,4.95,43.06,43.06,0,0,0-2.72,5.27A41,41,0,0,0,172.63,700a41.11,41.11,0,0,1,3.87-11.08,43.4,43.4,0,0,1,2.89-5.1A44.46,44.46,0,0,1,182.8,679a36.53,36.53,0,0,1,3.86-4.39,34.29,34.29,0,0,1,4.23-4c1.51-1.23,3-2.52,4.51-3.7l4.9-3.19a88,88,0,0,1,17.81-8.38,165.23,165.23,0,0,1,3.37,17.84c.76,6.17,1.37,12.39,1.74,18.65s.57,12.52.72,18.81c.63-6.25,1.25-12.52,1.62-18.81s.59-12.62.59-19a168,168,0,0,0-1.21-19.18c0-.14,0-.28-.07-.43a131.36,131.36,0,0,1,19.51-3.72l2.88-.44,2.92-.18,5.84-.36,5.83-.37c1.93-.15,3.89,0,5.84,0l11.69.2,6.05.12,1.4-.06c1.36,6.6,2.88,13.15,4.64,19.65A124.68,124.68,0,0,0,280.05,686a139.14,139.14,0,0,0-8.86,20.76,122.72,122.72,0,0,0-5.28,21.77,120.79,120.79,0,0,1,7.2-21A135.45,135.45,0,0,1,283.58,688a120.88,120.88,0,0,1,9.84-13.14c.26.9.49,1.81.77,2.7a223.44,223.44,0,0,0,17.24,42c1.63,3,3.38,6,5.21,8.85a180.73,180.73,0,0,1-11.42,15.71,184.44,184.44,0,0,0,12-14.7,121.75,121.75,0,0,0,21.79,25.67,120.71,120.71,0,0,1-19.76-28.46q5.47-7.62,10.39-15.65a259.26,259.26,0,0,0,18.77-36.88c.09-.19.16-.38.24-.56q1.28,2.48,2.61,4.9h0l0,.06.35.61,2.34,4.16,0,0,.09.16c7.3,12.52,15.73,24.19,22.9,36.55,3.53,6.19,6.78,12.6,8.45,19.51a26.92,26.92,0,0,1,.29,10.54,21.72,21.72,0,0,1-5,9.34,22,22,0,0,0,5.49-9.22,27.76,27.76,0,0,0,.22-10.86c-1.38-7.17-4.39-13.87-7.66-20.29-3.65-7.05-7.66-13.86-11.64-20.67q2.74,3.36,5.36,6.83A135.54,135.54,0,0,1,382,719.42a58.94,58.94,0,0,1,3.74,7.66,26.17,26.17,0,0,1,2,8.26,26.9,26.9,0,0,0-1.45-8.46,61.8,61.8,0,0,0-3.26-8,137.2,137.2,0,0,0-8.6-15c-3.14-4.82-6.48-9.52-9.94-14.12-2.39-3.16-4.85-6.26-7.35-9.34-.46-.88-.9-1.78-1.34-2.67a29.34,29.34,0,0,1-1.56-19c.37-1.09.73-2.18,1.06-3.28l0-.1a19.52,19.52,0,0,1,13-8.37c16.3-3,19.38,15.41,19.38,15.41s.11-.62.36-1.55V503.57A11.91,11.91,0,0,1,387.92,501.2ZM285.28,643.44l-5.76.1-11.92.24c-2,.08-4,0-6,.21l-5.94.59-5.93.59-3,.3-2.93.56a133,133,0,0,0-19.44,4.44,66.38,66.38,0,0,0-1.37-6.52,43.19,43.19,0,0,0-1.56-4.94q-.33-.84-.72-1.71l0,0c.55-.56,1-1.13,1.53-1.7s.84-1.17,1.26-1.76a40.47,40.47,0,0,0,3.72-7.25,85,85,0,0,0,4.27-14.83c.48-2.49,1-5,1.32-7.46s.76-5,1-7.45c.34-2.74.58-5.46.79-8.18l2.77,0a146.87,146.87,0,0,1,23.41,3.16c6.17,1.31,12.35,2.91,18.72,4.54.33,4.78.76,9.47,1.26,14.23Q282.09,622,284,633.21c.57,3.41,1.2,6.8,1.85,10.19Zm10.89-11.68q-.81-11-1-22.06c-.05-3.18-.06-6.41,0-9.61a108.22,108.22,0,0,0,16.16,2.2,68.62,68.62,0,0,0,28.24-4.21A98.8,98.8,0,0,1,327.91,620a71.55,71.55,0,0,1-7.34,8.48,61.17,61.17,0,0,1-8.74,6.91,55.78,55.78,0,0,1-10,4.89q-2.37.78-4.78,1.43C296.72,638.37,296.42,635.06,296.17,631.76Zm1.49,15.44c2-.43,4-1,6-1.54a61.71,61.71,0,0,0,11.37-5,66.93,66.93,0,0,0,10-7.34,79.19,79.19,0,0,0,8.44-9,102.28,102.28,0,0,0,12.54-21c.69-1.5,1.33-3,2-4.54-.11.34-.2.69-.31,1a102.62,102.62,0,0,1-3.74,9.63l-2.17,5.12c-.35.89-.78,1.75-1.07,2.67l-.82,2.77a54,54,0,0,0-2,12.32c-.63.32-1.47.7-2.33,1.09l-2.66,1.22c-1.8.76-3.5,1.74-5.23,2.63A110.18,110.18,0,0,0,299.21,659Q298.34,653.09,297.66,647.2Zm46.41,25.28a255,255,0,0,1-16.42,37.39q-4.23,7.89-9,15.48c-1.24-2.49-2.42-5-3.51-7.53a217.44,217.44,0,0,1-13-42.27c-.57-2.73-1.06-5.48-1.55-8.23a104.33,104.33,0,0,1,12.83-10.58,101.9,101.9,0,0,1,18.67-10.31c1.65-.66,3.26-1.4,4.95-1.94l1.47-.51a89.17,89.17,0,0,0,7.26,23.52C345.25,669.18,344.72,670.85,344.07,672.48Zm8.4-29.34L350,653c-.5,2.25-1.15,4.45-1.82,6.65A75.57,75.57,0,0,1,344.39,642a1.28,1.28,0,0,1,0-.19,48.11,48.11,0,0,0,9.1-5l.23-.18Zm4.71-30-.13,1a60.45,60.45,0,0,1-11,12.81c-.26.23-.54.43-.8.65a42.35,42.35,0,0,1,1.5-5.54l.81-2.37c.29-.78.7-1.51,1.05-2.27.72-1.52,1.38-2.95,2.26-4.71a109.79,109.79,0,0,0,4.56-10.24c1.08-2.94,2.05-5.9,2.95-8.87Zm10.89-20.57c-.08.2-.17.39-.25.6l1.15-9.67c.11-.83.18-1.66.32-2.49l.49-2.44.76-3.77c.49-.72,1-1.44,1.37-2.16a75.33,75.33,0,0,0,3.61-7.1L377,562c.46-1.18.84-2.34,1.25-3.52.27-.72.48-1.44.71-2.15A247.78,247.78,0,0,1,368.07,592.54Z" transform="translate(-34.36 -46.94)"/><polygon points="340.73 222.18 342.3 208.21 340.33 222.13 340.73 222.18"/><polygon points="337.28 242.95 338.28 243.08 338.28 243.05 337.29 242.93 337.28 242.95"/><polygon points="335.31 256.88 336.71 257.05 338.28 243.08 337.28 242.95 335.31 256.88"/><polygon points="332.36 277.76 334.36 278.02 334.36 277.99 332.36 277.74 332.36 277.76"/><polygon points="330.39 291.69 332.79 291.99 334.36 278.02 332.36 277.76 330.39 291.69"/><polygon points="327.43 312.58 330.43 312.96 330.43 312.94 327.44 312.56 327.43 312.58"/><polygon points="322.51 347.39 326.51 347.9 326.51 347.88 322.51 347.37 322.51 347.39"/><polygon points="320.54 361.32 324.94 361.88 326.51 347.9 322.51 347.39 320.54 361.32"/><polygon points="319.1 216.73 319.27 216.8 324.54 203.76 319.1 216.73"/><polygon points="311 236.21 311.44 236.39 311.45 236.37 311.01 236.19 311 236.21"/><polygon points="305.65 249.22 306.27 249.47 311.44 236.39 311 236.21 305.65 249.22"/><polygon points="297.69 268.76 298.58 269.11 298.58 269.09 297.7 268.73 297.69 268.76"/><polygon points="292.42 281.8 293.49 282.22 298.58 269.11 297.69 268.76 292.42 281.8"/><polygon points="284.57 301.38 285.9 301.9 285.91 301.88 284.58 301.36 284.57 301.38"/><polygon points="271.61 334.07 273.4 334.75 273.4 334.73 271.62 334.04 271.61 334.07"/><polygon points="266.47 347.16 268.43 347.91 273.4 334.75 271.61 334.07 266.47 347.16"/><polygon points="258.79 366.81 261.03 367.66 261.03 367.64 258.8 366.79 258.79 366.81"/><polygon points="253.7 379.92 256.11 380.83 261.03 367.66 258.79 366.81 253.7 379.92"/><polygon points="246.08 399.59 248.76 400.61 248.77 400.58 246.09 399.57 246.08 399.59"/><polygon points="241.02 412.7 243.88 413.78 248.76 400.61 246.08 399.59 241.02 412.7"/><polygon points="233.44 432.39 236.57 433.57 236.58 433.55 233.45 432.37 233.44 432.39"/><polygon points="228.41 445.51 231.72 446.76 236.57 433.57 233.44 432.39 228.41 445.51"/><polygon points="220.86 465.2 224.44 466.55 224.44 466.52 220.87 465.18 220.86 465.2"/><polygon points="215.83 478.33 219.59 479.74 224.44 466.55 220.86 465.2 215.83 478.33"/><polygon points="208.28 498.03 212.31 499.54 212.32 499.52 208.29 498.01 208.28 498.03"/><polygon points="203.25 511.16 207.46 512.74 212.31 499.54 208.28 498.03 203.25 511.16"/><polygon points="300.3 206.75 300.44 206.85 308.44 195.28 300.3 206.75"/><polygon points="288.1 223.96 288.44 224.19 288.45 224.18 288.11 223.94 288.1 223.96"/><polygon points="279.96 235.43 280.44 235.76 288.44 224.19 288.1 223.96 279.96 235.43"/><polygon points="268.44 253.11 268.45 253.09 267.77 252.62 267.76 252.64 268.44 253.11"/><polygon points="259.62 264.11 260.44 264.68 268.44 253.11 267.76 252.64 259.62 264.11"/><polygon points="248.45 282 247.43 281.29 247.42 281.31 248.43 282.02 248.45 282"/><polygon points="228.45 310.92 227.09 309.97 227.08 309.99 228.43 310.94 228.45 310.92"/><polygon points="228.43 310.94 227.08 309.99 218.94 321.46 220.43 322.5 228.43 310.94"/><rect x="241.94" y="385.16" width="0.02" height="2.07" transform="translate(-247.53 315.88) rotate(-54.99)"/><polygon points="206.74 338.67 198.6 350.14 200.43 351.42 208.43 339.85 206.74 338.67"/><polygon points="186.4 367.34 188.43 368.77 188.44 368.75 186.41 367.32 186.4 367.34"/><polygon points="178.26 378.81 180.43 380.33 188.43 368.77 186.4 367.34 178.26 378.81"/><polygon points="166.06 396.02 168.43 397.68 168.44 397.66 166.07 396 166.06 396.02"/><polygon points="157.92 407.49 160.43 409.25 168.43 397.68 166.06 396.02 157.92 407.49"/><polygon points="145.72 424.7 148.43 426.6 148.44 426.58 145.73 424.68 145.72 424.7"/><polygon points="137.58 436.17 140.43 438.16 148.43 426.6 145.72 424.7 137.58 436.17"/><polygon points="125.38 453.38 128.43 455.51 128.44 455.49 125.39 453.36 125.38 453.38"/><polygon points="117.24 464.85 120.43 467.08 128.43 455.51 125.38 453.38 117.24 464.85"/><polygon points="105.04 482.05 108.42 484.43 108.44 484.41 105.05 482.03 105.04 482.05"/><polygon points="96.9 493.52 100.42 495.99 108.42 484.43 105.04 482.05 96.9 493.52"/><polygon points="84.7 510.73 88.42 513.34 88.44 513.32 84.71 510.71 84.7 510.73"/><polygon points="77.77 520.5 81.61 523.19 88.42 513.34 84.7 510.73 77.77 520.5"/><polygon points="268.52 206.46 268.21 206.1 268.19 206.11 268.51 206.47 268.52 206.46"/><polygon points="268.51 206.47 268.19 206.11 257.54 215.29 257.97 215.79 268.51 206.47"/><polygon points="242.19 229.75 241.56 229.03 241.55 229.05 242.17 229.76 242.19 229.75"/><polygon points="241.55 229.05 230.89 238.22 231.63 239.08 242.17 229.76 241.55 229.05"/><polygon points="215.83 253.05 215.85 253.03 214.91 251.97 214.9 251.98 215.83 253.05"/><polygon points="189.51 276.32 188.27 274.9 188.25 274.91 189.49 276.34 189.51 276.32"/><polygon points="189.49 276.34 188.25 274.91 179.52 282.42 182.62 282.42 189.49 276.34"/><polygon points="124.54 330.24 126.28 332.24 127.58 331.09 127.9 330.24 124.54 330.24"/><polygon points="110.5 346.19 108.32 343.7 108.3 343.71 110.48 346.21 110.5 346.19"/><polygon points="108.3 343.71 97.64 352.89 99.94 355.53 110.48 346.21 108.3 343.71"/><polygon points="84.16 369.48 81.67 366.63 81.65 366.65 84.14 369.5 84.16 369.48"/><polygon points="81.65 366.65 70.99 375.82 73.61 378.82 84.14 369.5 81.65 366.65"/><polygon points="57.82 392.77 55.02 389.57 55 389.58 57.8 392.79 57.82 392.77"/><polygon points="55 389.58 44.34 398.75 47.27 402.11 57.8 392.79 55 389.58"/><polygon points="284.55 168.17 271.99 174.5 272.1 174.7 284.55 168.17"/><polygon points="253.16 183.99 253.41 184.5 253.44 184.49 253.18 183.98 253.16 183.99"/><polygon points="240.6 190.32 240.96 191.03 253.41 184.5 253.16 183.99 240.6 190.32"/><polygon points="222.3 200.81 221.78 199.81 221.76 199.82 222.28 200.83 222.3 200.81"/><polygon points="221.76 199.82 209.2 206.15 209.82 207.36 222.28 200.83 221.76 199.82"/><polygon points="191.16 217.14 190.38 215.63 190.36 215.64 191.14 217.15 191.16 217.14"/><polygon points="178.69 223.69 191.14 217.15 190.36 215.64 177.8 221.97 178.69 223.69"/><polygon points="160 233.48 160.02 233.47 158.99 231.45 158.97 231.47 160 233.48"/><polygon points="146.41 237.79 147.55 240.01 160 233.48 158.97 231.47 146.41 237.79"/><polygon points="128.89 249.8 127.59 247.28 127.57 247.29 128.87 249.81 128.89 249.8"/><polygon points="128.87 249.81 127.57 247.29 120.36 250.92 118.81 255.08 128.87 249.81"/><polygon points="57.75 285.18 59 282.42 59.7 282.42 60.55 281.07 52.22 285.26 54.14 289 56.27 287.88 57.23 286.34 57.75 285.18"/><polygon points="35.48 298.78 33.4 294.75 33.38 294.76 35.45 298.79 35.48 298.78"/><polygon points="33.38 294.76 25.05 298.95 27.2 303.12 35.45 298.79 33.38 294.76"/><polygon points="278.16 151.13 264.45 154.23 264.51 154.51 278.16 151.13"/><polygon points="244.03 159.57 244.06 159.57 243.89 158.88 243.87 158.88 244.03 159.57"/><polygon points="230.15 161.98 230.38 162.95 244.03 159.57 243.87 158.88 230.15 161.98"/><polygon points="209.93 168.01 209.6 166.63 209.58 166.64 209.91 168.02 209.93 168.01"/><polygon points="175.78 176.46 175.8 176.46 175.31 174.39 175.28 174.39 175.78 176.46"/><polygon points="161.57 177.49 162.12 179.84 175.78 176.46 175.28 174.39 161.57 177.49"/><polygon points="107.54 193.35 106.72 189.9 106.7 189.9 107.52 193.35 107.54 193.35"/><polygon points="107.52 193.35 106.7 189.9 92.98 193 93.86 196.73 107.52 193.35"/><polygon points="73.41 201.79 72.43 197.65 72.4 197.66 73.39 201.8 73.41 201.79"/><polygon points="73.39 201.8 72.4 197.66 58.69 200.76 59.73 205.18 73.39 201.8"/><polygon points="261.99 133.09 276.06 133.05 262 132.73 261.99 133.09"/><polygon points="240.92 133.16 240.93 132.24 240.9 132.24 240.9 133.16 240.92 133.16"/><polygon points="240.9 132.24 226.84 131.92 226.83 133.21 240.9 133.16 240.9 132.24"/><polygon points="205.76 133.27 205.78 131.43 205.75 131.43 205.73 133.27 205.76 133.27"/><polygon points="205.75 131.43 191.69 131.11 191.67 133.32 205.73 133.27 205.75 131.43"/><polygon points="170.6 133.38 170.63 130.62 170.6 130.62 170.57 133.38 170.6 133.38"/><polygon points="164.01 133.4 170.57 133.38 170.6 130.62 165.09 130.49 164.82 131.2 164.01 133.4"/><polygon points="135.44 133.49 135.47 129.81 135.45 129.81 135.41 133.49 135.44 133.49"/><polygon points="135.45 129.81 121.39 129.49 121.35 133.54 135.41 133.49 135.45 129.81"/><polygon points="100.28 133.6 100.32 129 100.3 129 100.25 133.6 100.28 133.6"/><polygon points="100.3 129 97.02 128.93 96.97 133.61 100.25 133.6 100.3 129"/><polygon points="264.79 111.25 264.67 111.72 278.35 115 264.79 111.25"/><polygon points="244.17 106.81 244.48 105.64 244.46 105.63 244.15 106.81 244.17 106.81"/><polygon points="244.46 105.63 230.9 101.88 230.47 103.53 244.15 106.81 244.46 105.63"/><polygon points="209.98 98.62 210.59 96.27 210.56 96.26 209.96 98.61 209.98 98.62"/><polygon points="210.56 96.26 197.01 92.51 196.28 95.34 209.96 98.61 210.56 96.26"/><polygon points="175.78 90.43 176.69 86.9 176.67 86.89 175.76 90.42 175.78 90.43"/><polygon points="176.67 86.89 163.11 83.15 162.08 87.15 175.76 90.42 176.67 86.89"/><polygon points="254.35 80.62 253.58 82.03 253.6 82.04 254.37 80.63 254.35 80.62"/><polygon points="242.12 73.66 241.06 75.64 253.58 82.03 254.35 80.62 242.12 73.66"/><polygon points="222.28 66.05 223.81 63.23 223.79 63.22 222.26 66.04 222.28 66.05"/><polygon points="223.79 63.22 211.56 56.26 209.73 59.65 222.26 66.04 223.79 63.22"/><polygon points="284.66 73.97 295.35 83.11 285.22 73.35 284.66 73.97"/><polygon points="268.64 60.26 270.03 58.73 270.02 58.71 268.62 60.25 268.64 60.26"/><polygon points="270.02 58.71 259.88 48.95 257.93 51.1 268.62 60.25 270.02 58.71"/><polygon points="241.92 37.4 244.7 34.33 244.69 34.31 241.9 37.38 241.92 37.4"/><polygon points="244.69 34.31 238.07 27.94 234.92 31.41 241.9 37.38 244.69 34.31"/><polygon points="301.65 59.19 300.8 59.76 309.06 71.15 301.65 59.19"/><polygon points="311.82 30.3 311.83 30.32 314.66 29.3 314.65 29.27 311.82 30.3"/><polygon points="310.42 15.85 306.45 17.29 311.82 30.3 314.65 29.27 310.42 15.85"/><polygon points="340.92 44.79 343.06 58.71 342.21 44.66 340.92 44.79"/><polygon points="337.61 23.88 340.86 23.53 340.85 23.51 337.61 23.85 337.61 23.88"/><polygon points="340.85 23.51 340.13 10.55 335.58 11.03 337.61 23.85 340.85 23.51"/><polygon points="160.43 129.57 62.31 287.11 62.02 287.11 61.37 288.55 38.36 325.55 134.64 325.55 63.67 516.63 183.44 324.32 204.93 287.11 101.92 287.11 160.43 129.57"/><path class="cls-1" d="M388.16,339.32a145.85,145.85,0,0,0,103.66-42.11,143.16,143.16,0,0,0,.07-203.88C481.37,82.91,469.52,73,457,66.38a172.74,172.74,0,0,1,54.12,36.37,170.24,170.24,0,0,1-.08,242.44,172.81,172.81,0,0,1-83.25,45.72s-14.85,4.28-39.66,3.95Z" transform="translate(-34.36 -46.94)"/><path class="cls-2" d="M423,233.05l.16,1.59c.3,2.73.6,5.55.67,8.28.07,3.18-.07,6.45-.21,9.62l-.1,2.51c0,.12,0,.23,0,.35-1.3-.91-2.59-1.83-3.84-2.8a80.86,80.86,0,0,1-15.28-15.43,125.63,125.63,0,0,0,8.45-11.45A76.11,76.11,0,0,0,423,233.05Z" transform="translate(-34.36 -46.94)"/><path class="cls-2" d="M436.85,210.62a66.21,66.21,0,0,1-13.6-4.83c1-2.56,1.82-5.15,2.55-7.74A72.35,72.35,0,0,1,436.85,210.62Z" transform="translate(-34.36 -46.94)"/><path class="cls-2" d="M394.37,259.51a101,101,0,0,0,7.11-17.13l.07.08c1.61,2,3.29,4,5.1,5.93a88.46,88.46,0,0,0,16.06,13.2c-.14.7-.24,1.4-.34,2.1-.06.42-.11.84-.18,1.26A117.77,117.77,0,0,1,416,287.87,118.8,118.8,0,0,1,402,274.36a110.29,110.29,0,0,1-9.21-11.92c.53-.88,1-1.76,1.46-2.65Z" transform="translate(-34.36 -46.94)"/><path class="cls-2" d="M440.83,217.05a95.09,95.09,0,0,1,8.26,19.46q.2.59.36,1.2c-1.2-.3-2.4-.6-3.59-.92A81.34,81.34,0,0,1,428,229.62a78.08,78.08,0,0,0-5.14-17.92A73.34,73.34,0,0,0,440.83,217.05Z" transform="translate(-34.36 -46.94)"/><path class="cls-2" d="M449.89,218a93,93,0,0,0,20.85-1.27,126.55,126.55,0,0,1,12.05,21.71c.3.69.58,1.4.86,2.11a113.16,113.16,0,0,1-13,.13A126.38,126.38,0,0,1,455.52,239a108.54,108.54,0,0,0-8-21.19C448.31,217.92,449.1,218,449.89,218Z" transform="translate(-34.36 -46.94)"/><path class="cls-2" d="M429.07,253.32a96.83,96.83,0,0,0-.18-17.06A96.11,96.11,0,0,0,451,243.75l.43,2.2c.76,3.93,1.55,8,2.15,12,.44,3,.62,6.06.79,9.06l.06,1.11c.05.81.05,1.65,0,2.53l-.29-.1c-2.33-.8-4.62-1.59-6.88-2.46a111.15,111.15,0,0,1-18.68-9.26c.07-.84.15-1.68.23-2.52C428.9,255.31,429,254.32,429.07,253.32Z" transform="translate(-34.36 -46.94)"/><path class="cls-2" d="M440.67,188.06a47.68,47.68,0,0,1-5.54.4c-2.37,0-4.78-.11-7.17-.25q.42-2.82.61-5.6A66.42,66.42,0,0,1,440.67,188.06Z" transform="translate(-34.36 -46.94)"/><path class="cls-2" d="M430.08,148.1c1.89-.66,3.78-1.23,5.71-1.72a70,70,0,0,1-10,11.18c-.65-2.26-1.39-4.53-2.26-6.82C425.63,149.77,427.82,148.88,430.08,148.1Z" transform="translate(-34.36 -46.94)"/><path class="cls-2" d="M429.57,168a57.51,57.51,0,0,1,11.18.7,65.88,65.88,0,0,1-12.13,5.13c-.11-1.91-.31-3.81-.58-5.71Z" transform="translate(-34.36 -46.94)"/><path class="cls-2" d="M422.72,100.54l.41-.29v.1c.19,2.86.37,5.72.46,8.58a86.3,86.3,0,0,1-1,15.16,77.74,77.74,0,0,0-9.3,6.73,123.31,123.31,0,0,0-9.12-12.34A83.65,83.65,0,0,1,422.72,100.54Z" transform="translate(-34.36 -46.94)"/><path class="cls-2" d="M454.16,190.64a92.52,92.52,0,0,0,20.25-9.28,124.69,124.69,0,0,1,25.35,20.17c.1.11.21.22.31.34a122.21,122.21,0,0,1-26.88,8.9A104.11,104.11,0,0,0,454.16,190.64Z" transform="translate(-34.36 -46.94)"/><path class="cls-2" d="M420.35,132.24l.69-.5a74.29,74.29,0,0,1-2.52,8c-.73-1.4-1.5-2.78-2.3-4.16C417.55,134.42,418.91,133.3,420.35,132.24Z" transform="translate(-34.36 -46.94)"/><path class="cls-2" d="M460.44,168.34c-2-.75-4-1.43-6.08-2.11a90.19,90.19,0,0,0,18.86-21c.12-.18.2-.28.24-.33s.16,0,.39.06a134,134,0,0,1,25,6.33l.85.33-.78.9c-1.6,1.87-3.21,3.75-4.87,5.56a108.48,108.48,0,0,1-19.75,16.84A94.23,94.23,0,0,0,460.44,168.34Z" transform="translate(-34.36 -46.94)"/><path class="cls-2" d="M428.6,162.49a72.71,72.71,0,0,0,6.95-7,84,84,0,0,0,7.88-10.68c1.36-.24,2.71-.42,4-.54a91.9,91.9,0,0,1,14.28-.41c1.82.11,3.65.24,5.51.37a83.23,83.23,0,0,1-19.65,20.15,76,76,0,0,0-13.54-1.86C432.23,162.45,430.39,162.44,428.6,162.49Z" transform="translate(-34.36 -46.94)"/><path class="cls-2" d="M432.77,178.28a71.34,71.34,0,0,0,16-8,95.93,95.93,0,0,1,20.09,7.92,79.89,79.89,0,0,1-20.31,8.29,75.72,75.72,0,0,0-14.86-7.86Z" transform="translate(-34.36 -46.94)"/><path class="cls-2" d="M453.55,94.92a109.44,109.44,0,0,1-2.8,17.25,109.06,109.06,0,0,0-22.31,8.56c.23-2.24.47-4.55.58-6.86a106,106,0,0,0-.73-17.06A119.79,119.79,0,0,1,454,85c0,.46,0,.91-.05,1.37C453.85,89.15,453.76,92.07,453.55,94.92Z" transform="translate(-34.36 -46.94)"/><path class="cls-2" d="M469.07,138.9c-1.34-.14-2.68-.28-4-.32-3.74-.12-8.09-.23-12.33-.12-2,.06-4,.22-5.92.41a103.61,103.61,0,0,0,8.25-21.58,1.85,1.85,0,0,1,.23-.61,1.91,1.91,0,0,1,.56-.18,126.32,126.32,0,0,1,18.38-2.86c2.5-.16,5-.22,7.51-.29l.6,0-.54,1.55c-1,2.84-2,5.78-3.15,8.6a99.21,99.21,0,0,1-8,15.58Z" transform="translate(-34.36 -46.94)"/><path class="cls-2" d="M440,139.84a75.94,75.94,0,0,0-17.83,5.49,79.53,79.53,0,0,0,5.38-17.85,100.33,100.33,0,0,1,21.54-9.14A97.68,97.68,0,0,1,440,139.84Z" transform="translate(-34.36 -46.94)"/><path class="cls-2" d="M401.21,113.22a100.75,100.75,0,0,0-8.79-19.88A118.15,118.15,0,0,1,413.6,69.51c.65-.56,1.31-1.11,2-1.66a121.7,121.7,0,0,1,6.83,26.24A90.58,90.58,0,0,0,401.21,113.22Z" transform="translate(-34.36 -46.94)"/><path class="cls-2" d="M429.55,194a73.27,73.27,0,0,0,17.86-1.53,91.44,91.44,0,0,1,16.91,15.91c.9,1.1,1.78,2.21,2.67,3.34-2.33.31-4.74.62-7.09.8a81.26,81.26,0,0,1-14.67-.33c-1-.11-1.06-.23-1.33-.67A75.21,75.21,0,0,0,429.55,194Z" transform="translate(-34.36 -46.94)"/><path class="cls-2" d="M394.08,156.41c-.08.14-.15.28-.22.42-.05-.49-.12-1-.17-1.46l.82.2C394.36,155.85,394.22,156.13,394.08,156.41Z" transform="translate(-34.36 -46.94)"/><path class="cls-2" d="M394.21,217.85c1.2-.17,2.39-.38,3.57-.65-.81,1.2-1.67,2.39-2.54,3.59C394.86,219.81,394.53,218.83,394.21,217.85Z" transform="translate(-34.36 -46.94)"/><path class="cls-2" d="M408.38,166l0,.06-.11,0Z" transform="translate(-34.36 -46.94)"/><path class="cls-2" d="M397.79,138.6c-1.22-.28-2.48-.47-3.74-.63.34-1,.68-2.06,1.07-3.06C396,136.13,396.92,137.32,397.79,138.6Z" transform="translate(-34.36 -46.94)"/><path class="cls-2" d="M388.16,250.72h3.48l1.51-1.56c-1.1,2.61-2.3,5.22-3.68,7.86-.46-.81-.89-1.61-1.31-2.42Z" transform="translate(-34.36 -46.94)"/><path class="cls-2" d="M418.62,215.79a70.23,70.23,0,0,1,2.55,8l.45,1.86a68.75,68.75,0,0,1-5.86-4.65c.61-1,1.22-2.06,1.8-3.11C418,217.16,418.26,216.47,418.62,215.79Z" transform="translate(-34.36 -46.94)"/><path class="cls-2" d="M401.47,158.62c.15.09.28.21.42.31l-.69.63Z" transform="translate(-34.36 -46.94)"/><path class="cls-1" d="M388.16,154.8h.28a24.34,24.34,0,0,1,5.25.58c.05.49.12,1,.17,1.46.07-.14.14-.28.22-.42s.28-.56.43-.84a22.82,22.82,0,0,1,7,3.05l-.27.94.69-.63a22.11,22.11,0,0,1,6.49,7.08l-.08.09.11,0a23.6,23.6,0,0,1,3.11,11.75A22.77,22.77,0,0,1,388.77,201h-.2c-.14,0-.27,0-.41,0Z" transform="translate(-34.36 -46.94)"/><path class="cls-1" d="M388.16,269.86c.5-.75,1-1.47,1.5-2.22a121.36,121.36,0,0,0,26.24,27.09l2.35,1.79,1.21-2.7a118.58,118.58,0,0,0,8.33-29.06,120.29,120.29,0,0,0,27.84,11.94,3.75,3.75,0,0,0,2.31.13l1.05.37,0-1.05a3.39,3.39,0,0,0,.79-2.42l0-1.49a53.79,53.79,0,0,0-.08-6.46c-.45-4.85-1.06-10.07-1.87-16-.24-1.69-.59-3.36-.94-5a101.8,101.8,0,0,0,14.21,1.32c3.75.07,7.55,0,11.23,0l.76,0c1,0,2-.11,3-.21l1-.1a3.27,3.27,0,0,0,2.49-1.26l.58-.09-.23-.6a3.61,3.61,0,0,0-.16-2.37l-.39-1c-.7-1.86-1.42-3.78-2.25-5.66a128.66,128.66,0,0,0-10.55-19.16A122.6,122.6,0,0,0,506.1,205l2.54-1.3-2.36-3c-.45-.58-.87-1.14-1.34-1.65a125.61,125.61,0,0,0-24.71-20.58l-.74-.47a121.27,121.27,0,0,0,27-26.11l1.6-2.09-2.71-1.61a9.91,9.91,0,0,0-1.21-.68,97.53,97.53,0,0,0-14.12-4.77,131.41,131.41,0,0,0-13.47-2.88,120.84,120.84,0,0,0,11.94-27.75,3.62,3.62,0,0,0-.12-2.87l0-.22-.21,0h0a3.4,3.4,0,0,0-2.83-1.22,98.18,98.18,0,0,0-14.35.63,132.68,132.68,0,0,0-14.42,2.32c.19-1.18.4-2.36.6-3.53.59-3.36,1.19-6.83,1.57-10.31.35-3.22.47-6.47.58-9.62.05-1.28.1-2.56.16-3.84a8,8,0,0,0-.05-1.19l0-.36a3.77,3.77,0,0,0-.94-2.62l0-.51-.46.13a3,3,0,0,0-2.63-.09l-.33.1a122.1,122.1,0,0,0-27.63,12,118.4,118.4,0,0,0-8.45-29l-1.22-2.69L415.44,61a121.42,121.42,0,0,0-26.12,27.17c-.38-.59-.77-1.13-1.16-1.7V100.6c.33-.61.64-1.22,1-1.84,1.12,2.12,2.12,4.22,3.06,6.31h.06l2.06,2.89c.69.71,1.39,1.41,2.09,2.12,1.82,1.83,3.69,3.72,5.5,5.76.77.87,1.52,1.75,2.26,2.64a83.65,83.65,0,0,1,18.54-17.94l.41-.29v.1c.19,2.86.37,5.72.46,8.58a86.3,86.3,0,0,1-1,15.16,77.74,77.74,0,0,0-9.3,6.73c1,1.57,2,3.15,2.92,4.75,1.33-1.15,2.69-2.27,4.13-3.33l.69-.5a74.29,74.29,0,0,1-2.52,8c.58,1.11,1.14,2.21,1.68,3.33,1.25,2.58,2.35,5.14,3.32,7.68,2.11-1,4.3-1.86,6.56-2.64,1.89-.66,3.78-1.23,5.71-1.72a70,70,0,0,1-10,11.18A75.14,75.14,0,0,1,428,168.1l1.53-.12a57.51,57.51,0,0,1,11.18.7,65.88,65.88,0,0,1-12.13,5.13c0,.26.05.51.06.77a67.3,67.3,0,0,1-.11,8,66.42,66.42,0,0,1,12.1,5.45,47.68,47.68,0,0,1-5.54.4c-2.37,0-4.78-.11-7.17-.25-.3,2-.67,4.07-1.15,6.16-.29,1.23-.66,2.45-1,3.68a72.35,72.35,0,0,1,11.05,12.57,66.21,66.21,0,0,1-13.6-4.83,93.9,93.9,0,0,1-4.63,10,70.23,70.23,0,0,1,2.55,8l.45,1.86a68.75,68.75,0,0,1-5.86-4.65c-1,1.61-1.94,3.21-3,4.77A76.11,76.11,0,0,0,423,233.05l.16,1.59c.3,2.73.6,5.55.67,8.28.07,3.18-.07,6.45-.21,9.62l-.1,2.51c0,.12,0,.23,0,.35-1.3-.91-2.59-1.83-3.84-2.8a80.86,80.86,0,0,1-15.28-15.43,126.87,126.87,0,0,1-9.61,10.33l-.6.62-.43.45-.56.59c-1.1,2.61-2.3,5.22-3.68,7.86-.46-.81-.89-1.61-1.31-2.42ZM422.42,94.09a90.58,90.58,0,0,0-21.21,19.13,100.75,100.75,0,0,0-8.79-19.88A118.15,118.15,0,0,1,413.6,69.51c.65-.56,1.31-1.11,2-1.66A121.7,121.7,0,0,1,422.42,94.09Zm25,98.35a91.44,91.44,0,0,1,16.91,15.91c.9,1.1,1.78,2.21,2.67,3.34-2.33.31-4.74.62-7.09.8a81.26,81.26,0,0,1-14.67-.33c-1-.11-1.06-.23-1.33-.67A75.21,75.21,0,0,0,429.55,194,73.27,73.27,0,0,0,447.41,192.44Zm1.37-22.16a95.93,95.93,0,0,1,20.09,7.92,79.89,79.89,0,0,1-20.31,8.29,75.72,75.72,0,0,0-14.86-7.86l-.93-.35A71.34,71.34,0,0,0,448.78,170.28Zm-5.35-25.45c1.36-.24,2.71-.42,4-.54a91.9,91.9,0,0,1,14.28-.41c1.82.11,3.65.24,5.51.37a83.23,83.23,0,0,1-19.65,20.15,76,76,0,0,0-13.54-1.86c-1.84-.09-3.68-.1-5.47,0a72.71,72.71,0,0,0,6.95-7A84,84,0,0,0,443.43,144.83Zm-15.87-17.35a100.33,100.33,0,0,1,21.54-9.14,97.68,97.68,0,0,1-9.09,21.5,75.94,75.94,0,0,0-17.83,5.49A79.53,79.53,0,0,0,427.56,127.48ZM454,85c0,.46,0,.91-.05,1.37-.09,2.83-.18,5.75-.39,8.6a109.44,109.44,0,0,1-2.8,17.25,109.06,109.06,0,0,0-22.31,8.56c.23-2.24.47-4.55.58-6.86a106,106,0,0,0-.73-17.06A119.79,119.79,0,0,1,454,85Zm16.68,54.11-1.6-.16c-1.34-.14-2.68-.28-4-.32-3.74-.12-8.09-.23-12.33-.12-2,.06-4,.22-5.92.41a103.61,103.61,0,0,0,8.25-21.58,1.85,1.85,0,0,1,.23-.61,1.91,1.91,0,0,1,.56-.18,126.32,126.32,0,0,1,18.38-2.86c2.5-.16,5-.22,7.51-.29l.6,0-.54,1.55c-1,2.84-2,5.78-3.15,8.6A99.21,99.21,0,0,1,470.67,139.06Zm3.61,35.85a94.23,94.23,0,0,0-13.84-6.57c-2-.75-4-1.43-6.08-2.11a90.19,90.19,0,0,0,18.86-21c.12-.18.2-.28.24-.33s.16,0,.39.06a134,134,0,0,1,25,6.33l.85.33-.78.9c-1.6,1.87-3.21,3.75-4.87,5.56A108.48,108.48,0,0,1,474.28,174.91Zm-1.09,35.86a104.11,104.11,0,0,0-19-20.13,92.52,92.52,0,0,0,20.25-9.28,124.69,124.69,0,0,1,25.35,20.17c.1.11.21.22.31.34A122.21,122.21,0,0,1,473.19,210.77ZM455.52,239a108.54,108.54,0,0,0-8-21.19c.79.07,1.58.13,2.37.17a93,93,0,0,0,20.85-1.27,126.55,126.55,0,0,1,12.05,21.71c.3.69.58,1.4.86,2.11a113.16,113.16,0,0,1-13,.13A126.38,126.38,0,0,1,455.52,239Zm-26.94,19.78c.07-.84.15-1.68.23-2.52.09-1,.18-2,.26-3a96.83,96.83,0,0,0-.18-17.06A96.11,96.11,0,0,0,451,243.75l.43,2.2c.76,3.93,1.55,8,2.15,12,.44,3,.62,6.06.79,9.06l.06,1.11c.05.81.05,1.65,0,2.53l-.29-.1c-2.33-.8-4.62-1.59-6.88-2.46A111.15,111.15,0,0,1,428.58,258.82Zm-5.69-47.12a73.34,73.34,0,0,0,17.94,5.35,95.09,95.09,0,0,1,8.26,19.46q.2.59.36,1.2c-1.2-.3-2.4-.6-3.59-.92A81.34,81.34,0,0,1,428,229.62,78.08,78.08,0,0,0,422.89,211.7Zm-30.13,50.74c.53-.88,1-1.76,1.46-2.65l.15-.28a101,101,0,0,0,7.11-17.13l.07.08c1.61,2,3.29,4,5.1,5.93a88.46,88.46,0,0,0,16.06,13.2c-.14.7-.24,1.4-.34,2.1-.06.42-.11.84-.18,1.26A117.77,117.77,0,0,1,416,287.87,118.8,118.8,0,0,1,402,274.36,110.29,110.29,0,0,1,392.76,262.44Z" transform="translate(-34.36 -46.94)"/><path class="cls-1" d="M388.16,239l.35.37c11.94-12.13,21.43-25.66,26.81-41.83a32.94,32.94,0,0,1-26.76,13.65l-.4,0V208l.41,0h.26a30.14,30.14,0,0,0-.39-60.27h-.28v-3.14l.36,0h0c11.13,0,19.91,5,26.83,13.73a91.91,91.91,0,0,0-11-22.5,117,117,0,0,0-15.92-19.41l-.31.33v-4.43l.21-.21h.28c.1.12.17.27.28.38,2.58,2.66,5.27,5.23,7.72,8a111.88,111.88,0,0,1,17.22,25.61,74.79,74.79,0,0,1,7.79,28.82,63.72,63.72,0,0,1-1.7,17.84,83.58,83.58,0,0,1-8.54,21.66,118.54,118.54,0,0,1-21.55,28c-.42.4-.81.84-1.22,1.26h-.28c0-.08-.06-.19-.12-.24l-.09-.09Z" transform="translate(-34.36 -46.94)"/><path class="cls-1" d="M388.16,503.56V660.87c.25.94.37,1.55.37,1.55S391.6,644,407.9,647a19.52,19.52,0,0,1,13,8.37l0,.1c.33,1.1.69,2.19,1.07,3.28a29.34,29.34,0,0,1-1.56,19c-.45.89-.88,1.79-1.34,2.68-2.51,3.07-5,6.17-7.36,9.33-3.45,4.6-6.79,9.3-9.94,14.12a137.12,137.12,0,0,0-8.59,15,59.09,59.09,0,0,0-3.26,8,26.62,26.62,0,0,0-1.45,8.46,26.43,26.43,0,0,1,2-8.26,59,59,0,0,1,3.75-7.66,135.45,135.45,0,0,1,9.47-14.17q2.61-3.47,5.36-6.83c-4,6.81-8,13.62-11.64,20.67-3.26,6.43-6.28,13.12-7.65,20.3a27.71,27.71,0,0,0,.22,10.85,22,22,0,0,0,5.48,9.22,21.82,21.82,0,0,1-5-9.34,27.3,27.3,0,0,1,.29-10.54c1.67-6.9,4.93-13.32,8.45-19.51,7.18-12.36,15.61-24,22.91-36.55a1.09,1.09,0,0,1,.08-.15l0,0,2.35-4.16c.11-.2.23-.4.34-.61l0,0h0c.89-1.62,1.77-3.26,2.61-4.91.09.18.16.37.24.56A261.37,261.37,0,0,0,446.63,711q4.92,8,10.39,15.66a120.52,120.52,0,0,1-19.75,28.45,121.75,121.75,0,0,0,21.78-25.67,184.44,184.44,0,0,0,12,14.7,184.16,184.16,0,0,1-11.41-15.7q2.74-4.35,5.2-8.86a223.2,223.2,0,0,0,17.25-42c.27-.89.5-1.8.77-2.7A120,120,0,0,1,492.73,688a134.86,134.86,0,0,1,10.48,19.42,121.62,121.62,0,0,1,7.2,21,121.88,121.88,0,0,0-5.29-21.77A138.05,138.05,0,0,0,496.27,686a125.56,125.56,0,0,0-11.42-17.88c1.75-6.49,3.27-13.05,4.64-19.65l1.4.06,6-.12,11.69-.2c1.95,0,3.91-.16,5.85,0l5.83.37,5.83.36,2.92.18,2.88.44a132.16,132.16,0,0,1,19.51,3.72l-.06.43a170.47,170.47,0,0,0-1.22,19.18c0,6.35.19,12.67.59,19s1,12.56,1.62,18.81c.16-6.29.32-12.56.73-18.81s1-12.48,1.74-18.65a165,165,0,0,1,3.36-17.83A86.93,86.93,0,0,1,576,663.69l4.9,3.19c1.54,1.18,3,2.47,4.52,3.7a35,35,0,0,1,4.23,4,36.45,36.45,0,0,1,3.85,4.39,43.1,43.1,0,0,1,3.41,4.77,42,42,0,0,1,2.89,5.1A41.13,41.13,0,0,1,603.69,700a41,41,0,0,0-3.48-11.26,43.68,43.68,0,0,0-2.73-5.26,41.63,41.63,0,0,0-3.27-5,37.57,37.57,0,0,0-3.75-4.61,34.78,34.78,0,0,0-4.15-4.26c-1.49-1.31-2.93-2.68-4.47-4L577,662.22a89.42,89.42,0,0,0-18.08-9.32,63.39,63.39,0,0,1,2.15-6.41,34.06,34.06,0,0,1,1.77-3.85c.18-.33.35-.65.54-.95l50.2,23.23-50.69-31.27-1-.36c.4.08.26,0,.3,0s0-.05-.07-.08a2.12,2.12,0,0,1-.31-.28,7.41,7.41,0,0,1-.77-.85l-.77-1.12-.71-1.3a33.69,33.69,0,0,1-2.19-6,76,76,0,0,1-2.16-13.52c-.17-2.33-.37-4.64-.39-7s-.16-4.69-.09-7.06,0-4.54.14-6.82c2.49.28,5,.67,7.5,1a250.13,250.13,0,0,1,35.43,8.56l18.76,63.08-9-59.94,2.26.75a475,475,0,0,1,46.11,18.6,480.82,480.82,0,0,0-43.88-24c-15.12-7.17-30.6-13.85-47.13-18.47-4.17-1.08-8.29-2.29-12.63-3-2.16-.37-4.27-.9-6.49-1.14l-6.67-.69a162.36,162.36,0,0,0-26.21.42c-8.6.79-17,2-25.12,3.09s-15.83,1.83-22.82,1.33a43.2,43.2,0,0,1-18.7-5.32,29.75,29.75,0,0,1-4.1-2.57l-2-1.35-1.93-1.68-1.92-1.64-1-.81a4.3,4.3,0,0,1-.56-.67c-.33-.43-.68-.8-1-1.21s-.62-1-.95-1.54a9.22,9.22,0,0,1-.92-1.69c-.28-.62-.62-1.16-.88-1.82-.48-1.45-1.11-2.65-1.49-4.26l-.67-2.26c-.19-.79-.34-1.64-.53-2.44-.39-1.59-.64-3.33-.9-5.05a134.79,134.79,0,0,1-1.1-22,313.3,313.3,0,0,1,5.15-46.61q2.09-11.75,4.76-23.43c.91-3.89,1.82-7.77,2.8-11.62l1.5-5.74c.5-1.85,1.05-3.89,1.53-5.46l-1.63-.37,2.21-2.5,7.51-32.35S431,407,388.53,409l-.37,0v15.79a11.1,11.1,0,0,1,.24,2.36V501.2A11.1,11.1,0,0,1,388.16,503.56ZM490.52,643.39q1-5.08,1.84-10.19,1.88-11.25,3.09-22.61c.5-4.76.93-9.45,1.26-14.23,6.36-1.63,12.55-3.23,18.72-4.53a145.79,145.79,0,0,1,23.4-3.17l2.77,0c.22,2.72.46,5.45.79,8.18.23,2.47.62,5,1,7.45s.85,5,1.33,7.46A85,85,0,0,0,549,626.54a40.82,40.82,0,0,0,3.71,7.26c.42.59.82,1.17,1.27,1.75s1,1.14,1.52,1.7l0,0c-.26.58-.5,1.15-.73,1.71a43.19,43.19,0,0,0-1.56,4.94c-.59,2.19-1,4.36-1.37,6.52A133.2,133.2,0,0,0,532.44,646l-2.94-.56-3-.3-5.93-.59-5.94-.59c-2-.23-4-.13-5.95-.21l-11.92-.24-5.77-.1Zm-11.25-1.72c-1.61-.43-3.21-.91-4.78-1.43a56.21,56.21,0,0,1-10-4.89,61.17,61.17,0,0,1-8.74-6.91A74.18,74.18,0,0,1,448.4,620a99.44,99.44,0,0,1-11.66-21.89,68.82,68.82,0,0,0,28.25,4.2,108.22,108.22,0,0,0,16.16-2.2c0,3.2,0,6.43,0,9.61q-.18,11-1,22.06C479.9,635.06,479.6,638.36,479.27,641.67ZM477.1,659a108.13,108.13,0,0,0-9.18-8.71,110.68,110.68,0,0,0-19.25-13.06c-1.73-.89-3.44-1.87-5.23-2.63l-2.67-1.22c-.86-.39-1.69-.77-2.32-1.08a54,54,0,0,0-2-12.33l-.82-2.77c-.29-.91-.71-1.78-1.06-2.67l-2.18-5.12a102.62,102.62,0,0,1-3.74-9.63l-.3-1c.63,1.52,1.27,3,1.95,4.54a103.18,103.18,0,0,0,12.54,21,79.28,79.28,0,0,0,8.45,9,66.43,66.43,0,0,0,10,7.34,61.25,61.25,0,0,0,11.36,5c2,.59,4,1.11,6,1.54Q478,653.09,477.1,659Zm-46.55,8.54A88.8,88.8,0,0,0,437.81,644l1.47.51c1.7.54,3.3,1.28,5,1.94a101.65,101.65,0,0,1,18.68,10.31,104.33,104.33,0,0,1,12.83,10.58c-.49,2.75-1,5.5-1.56,8.23a217.41,217.41,0,0,1-13,42.27c-1.09,2.54-2.28,5.05-3.51,7.53q-4.77-7.59-9-15.48a256.14,256.14,0,0,1-16.43-37.39C431.6,670.84,431.06,669.17,430.55,667.49Zm-7.94-30.91.22.18a48.19,48.19,0,0,0,9.11,5,1.15,1.15,0,0,0,0,.19,75.57,75.57,0,0,1-3.79,17.67c-.67-2.2-1.32-4.4-1.83-6.64l-2.46-9.87Zm-4.67-43c.9,3,1.86,5.94,2.95,8.87a109.7,109.7,0,0,0,4.55,10.24c.89,1.76,1.54,3.19,2.27,4.71.34.76.76,1.49,1,2.28l.82,2.36a45.74,45.74,0,0,1,1.5,5.54c-.27-.22-.54-.42-.8-.65a60.49,60.49,0,0,1-11-12.81l-.13-1Zm-20.63-37.33c.23.72.44,1.43.71,2.15.42,1.18.8,2.34,1.26,3.52l1.52,3.56a75.36,75.36,0,0,0,3.6,7.11c.41.72.89,1.44,1.37,2.15l.76,3.77L407,581c.13.82.21,1.65.31,2.48l1.16,9.67-.25-.6A247.81,247.81,0,0,1,397.31,556.27Z" transform="translate(-34.36 -46.94)"/><polygon class="cls-1" points="366.96 222.1 365.39 208.13 367.36 222.05 366.96 222.1"/><polygon points="370.31 242.94 369.31 243.07 369.31 243.04 370.31 242.92 370.31 242.94"/><polygon class="cls-1" points="372.28 256.87 370.88 257.04 369.31 243.07 370.31 242.94 372.28 256.87"/><polygon points="375.24 277.75 373.24 278.01 373.24 277.99 375.24 277.73 375.24 277.75"/><polygon class="cls-1" points="377.21 291.68 374.81 291.99 373.24 278.01 375.24 277.75 377.21 291.68"/><polygon points="385.09 347.38 381.09 347.89 381.09 347.87 385.08 347.36 385.09 347.38"/><polygon class="cls-1" points="387.06 361.31 382.66 361.87 381.09 347.89 385.09 347.38 387.06 361.31"/><polygon class="cls-1" points="388.5 216.72 388.32 216.8 383.06 203.76 388.5 216.72"/><polygon points="396.59 236.21 396.15 236.38 396.14 236.36 396.58 236.18 396.59 236.21"/><polygon class="cls-1" points="401.94 249.21 401.32 249.46 396.15 236.38 396.59 236.21 401.94 249.21"/><polygon points="409.91 268.75 409.02 269.1 409.01 269.08 409.9 268.73 409.91 268.75"/><polygon class="cls-1" points="415.18 281.79 414.11 282.21 409.02 269.1 409.91 268.75 415.18 281.79"/><polygon points="435.98 334.06 434.2 334.75 434.19 334.72 435.97 334.04 435.98 334.06"/><polygon class="cls-1" points="441.12 347.15 439.16 347.9 434.2 334.75 435.98 334.06 441.12 347.15"/><polygon points="448.8 366.8 446.57 367.65 446.56 367.63 448.79 366.78 448.8 366.8"/><polygon class="cls-1" points="453.9 379.91 451.49 380.82 446.57 367.65 448.8 366.8 453.9 379.91"/><polygon points="461.52 399.58 458.83 400.6 458.83 400.57 461.51 399.56 461.52 399.58"/><polygon class="cls-1" points="466.57 412.69 463.71 413.77 458.83 400.6 461.52 399.58 466.57 412.69"/><polygon points="474.15 432.38 471.02 433.56 471.01 433.54 474.14 432.36 474.15 432.38"/><polygon class="cls-1" points="479.19 445.51 475.88 446.75 471.02 433.56 474.15 432.38 479.19 445.51"/><polygon points="486.74 465.19 483.16 466.54 483.15 466.52 486.73 465.17 486.74 465.19"/><polygon class="cls-1" points="491.77 478.32 488.01 479.73 483.16 466.54 486.74 465.19 491.77 478.32"/><polygon points="499.31 498.02 495.29 499.53 495.28 499.51 499.3 498 499.31 498.02"/><polygon class="cls-1" points="504.34 511.15 500.14 512.73 495.29 499.53 499.31 498.02 504.34 511.15"/><polygon class="cls-1" points="407.29 206.74 407.16 206.84 399.16 195.27 407.29 206.74"/><polygon points="419.5 223.95 419.16 224.19 419.15 224.17 419.48 223.93 419.5 223.95"/><polygon class="cls-1" points="427.63 235.42 427.16 235.75 419.16 224.19 419.5 223.95 427.63 235.42"/><polygon points="439.16 253.1 439.15 253.08 439.82 252.61 439.84 252.63 439.16 253.1"/><polygon class="cls-1" points="447.97 264.1 447.16 264.67 439.16 253.1 439.84 252.63 447.97 264.1"/><polygon points="479.15 310.91 480.5 309.96 480.52 309.98 479.16 310.93 479.15 310.91"/><polygon class="cls-1" points="479.16 310.93 480.52 309.98 488.65 321.45 487.16 322.5 479.16 310.93"/><rect x="533.33" y="386.17" width="2.07" height="0.02" transform="translate(-159.23 329.48) rotate(-35.01)"/><polygon class="cls-1" points="500.86 338.66 508.99 350.13 507.17 351.41 499.16 339.84 500.86 338.66"/><polygon points="521.2 367.34 519.17 368.76 519.15 368.74 521.18 367.32 521.2 367.34"/><polygon class="cls-1" points="529.33 378.81 527.17 380.32 519.17 368.76 521.2 367.34 529.33 378.81"/><polygon points="541.54 396.01 539.17 397.67 539.15 397.65 541.52 395.99 541.54 396.01"/><polygon class="cls-1" points="549.67 407.48 547.17 409.24 539.17 397.67 541.54 396.01 549.67 407.48"/><polygon points="561.88 424.69 559.17 426.59 559.15 426.57 561.86 424.67 561.88 424.69"/><polygon class="cls-1" points="570.01 436.16 567.17 438.15 559.17 426.59 561.88 424.69 570.01 436.16"/><polygon points="582.22 453.37 579.17 455.5 579.16 455.48 582.2 453.35 582.22 453.37"/><polygon class="cls-1" points="590.35 464.84 587.17 467.07 579.17 455.5 582.22 453.37 590.35 464.84"/><polygon points="602.56 482.05 599.17 484.42 599.16 484.4 602.54 482.02 602.56 482.05"/><polygon class="cls-1" points="610.69 493.51 607.17 495.98 599.17 484.42 602.56 482.05 610.69 493.51"/><polygon points="622.9 510.72 619.17 513.33 619.16 513.31 622.88 510.7 622.9 510.72"/><polygon class="cls-1" points="629.83 520.49 625.99 523.18 619.17 513.33 622.9 510.72 629.83 520.49"/><polygon points="439.07 206.45 439.38 206.09 439.4 206.1 439.09 206.46 439.07 206.45"/><polygon class="cls-1" points="439.09 206.46 439.4 206.1 450.06 215.28 449.63 215.78 439.09 206.46"/><polygon points="465.41 229.74 466.03 229.02 466.05 229.04 465.43 229.75 465.41 229.74"/><polygon class="cls-1" points="466.05 229.04 476.71 238.21 475.96 239.07 465.43 229.75 466.05 229.04"/><polygon points="518.09 276.32 519.33 274.89 519.35 274.9 518.1 276.33 518.09 276.32"/><polygon class="cls-1" points="518.1 276.33 519.35 274.9 528.07 282.41 524.98 282.41 518.1 276.33"/><polygon class="cls-1" points="583.06 330.23 581.32 332.23 580.02 331.08 579.7 330.23 583.06 330.23"/><polygon points="597.1 346.19 599.28 343.69 599.29 343.7 597.12 346.2 597.1 346.19"/><polygon class="cls-1" points="599.29 343.7 609.95 352.88 607.65 355.52 597.12 346.2 599.29 343.7"/><polygon points="623.44 369.48 625.93 366.62 625.94 366.64 623.46 369.49 623.44 369.48"/><polygon class="cls-1" points="625.94 366.64 636.6 375.81 633.99 378.81 623.46 369.49 625.94 366.64"/><polygon points="649.78 392.76 652.58 389.56 652.59 389.57 649.79 392.78 649.78 392.76"/><polygon class="cls-1" points="652.59 389.57 663.25 398.75 660.33 402.1 649.79 392.78 652.59 389.57"/><polygon class="cls-1" points="423.04 168.16 435.6 174.49 435.5 174.69 423.04 168.16"/><polygon points="454.44 183.99 454.18 184.49 454.16 184.48 454.42 183.97 454.44 183.99"/><polygon class="cls-1" points="467 190.31 466.64 191.02 454.18 184.49 454.44 183.99 467 190.31"/><polygon points="485.3 200.81 485.82 199.8 485.84 199.81 485.32 200.82 485.3 200.81"/><polygon class="cls-1" points="485.84 199.81 498.4 206.14 497.77 207.35 485.32 200.82 485.84 199.81"/><polygon points="516.43 217.13 517.21 215.62 517.23 215.63 516.46 217.15 516.43 217.13"/><polygon class="cls-1" points="528.91 223.68 516.46 217.15 517.23 215.63 529.79 221.96 528.91 223.68"/><polygon points="547.59 233.47 547.57 233.46 548.61 231.44 548.63 231.46 547.59 233.47"/><polygon class="cls-1" points="561.19 237.78 560.05 240 547.59 233.47 548.63 231.46 561.19 237.78"/><polygon points="578.71 249.79 580 247.27 580.03 247.28 578.73 249.8 578.71 249.79"/><polygon class="cls-1" points="578.73 249.8 580.03 247.28 587.24 250.91 588.78 255.07 578.73 249.8"/><polygon class="cls-1" points="649.84 285.17 648.6 282.41 647.89 282.41 647.05 281.06 655.38 285.26 653.46 288.99 651.33 287.87 650.37 286.33 649.84 285.17"/><polygon points="672.12 298.77 674.2 294.74 674.22 294.75 672.14 298.79 672.12 298.77"/><polygon class="cls-1" points="674.22 294.75 682.54 298.95 680.4 303.12 672.14 298.79 674.22 294.75"/><polygon class="cls-1" points="429.43 151.12 443.15 154.22 443.08 154.5 429.43 151.12"/><polygon points="463.56 159.56 463.54 159.56 463.7 158.87 463.73 158.87 463.56 159.56"/><polygon class="cls-1" points="477.44 161.97 477.21 162.94 463.56 159.56 463.73 158.87 477.44 161.97"/><polygon points="497.67 168 498 166.62 498.02 166.63 497.69 168.01 497.67 168"/><polygon class="cls-1" points="498.02 166.63 511.74 169.73 511.34 171.39 497.69 168.01 498.02 166.63"/><polygon points="531.82 176.46 531.8 176.45 532.29 174.38 532.31 174.38 531.82 176.46"/><polygon class="cls-1" points="546.03 177.49 545.47 179.83 531.82 176.46 532.31 174.38 546.03 177.49"/><polygon points="600.06 193.34 600.88 189.89 600.9 189.89 600.08 193.35 600.06 193.34"/><polygon class="cls-1" points="600.08 193.35 600.9 189.89 614.62 192.99 613.73 196.72 600.08 193.35"/><polygon points="634.19 201.78 635.17 197.64 635.19 197.65 634.21 201.79 634.19 201.78"/><polygon class="cls-1" points="634.21 201.79 635.19 197.65 648.91 200.75 647.86 205.17 634.21 201.79"/><polygon class="cls-1" points="445.61 133.09 431.54 133.04 445.6 132.72 445.61 133.09"/><polygon points="466.68 133.15 466.67 132.23 466.69 132.23 466.7 133.15 466.68 133.15"/><polygon class="cls-1" points="466.69 132.23 480.75 131.91 480.76 133.2 466.7 133.15 466.69 132.23"/><polygon points="537 133.37 536.97 130.61 536.99 130.61 537.02 133.37 537 133.37"/><polygon class="cls-1" points="543.59 133.39 537.02 133.37 536.99 130.61 542.51 130.49 542.77 131.19 543.59 133.39"/><polygon points="572.16 133.48 572.12 129.8 572.14 129.8 572.18 133.48 572.16 133.48"/><polygon class="cls-1" points="572.14 129.8 586.21 129.48 586.25 133.53 572.18 133.48 572.14 129.8"/><polygon points="607.32 133.59 607.27 128.99 607.3 128.99 607.34 133.59 607.32 133.59"/><polygon class="cls-1" points="607.3 128.99 610.58 128.92 610.63 133.6 607.34 133.59 607.3 128.99"/><polygon class="cls-1" points="442.81 111.24 442.93 111.71 429.25 114.99 442.81 111.24"/><polygon points="463.42 106.8 463.12 105.63 463.14 105.62 463.44 106.8 463.42 106.8"/><polygon class="cls-1" points="463.14 105.62 476.7 101.87 477.12 103.52 463.44 106.8 463.14 105.62"/><polygon points="497.62 98.61 497.01 96.26 497.03 96.25 497.64 98.61 497.62 98.61"/><polygon class="cls-1" points="497.03 96.25 510.59 92.5 511.32 95.33 497.64 98.61 497.03 96.25"/><polygon points="531.81 90.42 530.9 86.89 530.92 86.89 531.84 90.42 531.81 90.42"/><polygon class="cls-1" points="530.92 86.89 544.48 83.14 545.51 87.14 531.84 90.42 530.92 86.89"/><polygon points="453.25 80.61 454.01 82.02 453.99 82.03 453.23 80.62 453.25 80.61"/><polygon class="cls-1" points="465.47 73.65 466.54 75.63 454.01 82.02 453.25 80.61 465.47 73.65"/><polygon points="485.31 66.04 483.79 63.22 483.81 63.21 485.33 66.03 485.31 66.04"/><polygon class="cls-1" points="483.81 63.21 496.03 56.25 497.86 59.64 485.33 66.03 483.81 63.21"/><polygon class="cls-1" points="422.94 73.96 412.25 83.11 422.38 73.34 422.94 73.96"/><polygon points="438.95 60.25 437.56 58.72 437.58 58.7 438.97 60.24 438.95 60.25"/><polygon class="cls-1" points="437.58 58.7 447.71 48.94 449.66 51.09 438.97 60.24 437.58 58.7"/><polygon points="465.68 37.39 462.89 34.32 462.91 34.3 465.7 37.37 465.68 37.39"/><polygon class="cls-1" points="462.91 34.3 469.52 27.93 472.67 31.4 465.7 37.37 462.91 34.3"/><polygon class="cls-1" points="405.94 59.18 406.8 59.75 398.53 71.14 405.94 59.18"/><polygon points="419.18 42.69 417.04 41.25 417.06 41.23 419.19 42.67 419.18 42.69"/><polygon points="395.78 30.3 395.77 30.32 392.94 29.29 392.94 29.26 395.78 30.3"/><polygon class="cls-1" points="397.18 15.84 401.15 17.28 395.78 30.3 392.94 29.26 397.18 15.84"/><polygon class="cls-1" points="366.78 44.72 364.63 58.63 365.48 44.58 366.78 44.72"/><polygon points="369.99 23.87 366.74 23.52 366.74 23.5 369.99 23.84 369.99 23.87"/><polygon class="cls-1" points="366.74 23.5 367.47 10.54 372.01 11.02 369.99 23.84 366.74 23.5"/><polygon class="cls-1" points="547.16 129.56 645.29 287.1 645.57 287.1 646.22 288.54 669.23 325.54 572.96 325.54 643.93 516.62 524.15 324.31 502.66 287.1 605.68 287.1 547.16 129.56"/></svg>